<svg xmlns="http://www.w3.org/2000/svg" xmlns:xlink="http://www.w3.org/1999/xlink" width="56" height="18" viewBox="0 0 56 18">
    <defs>
        <path id="prefix__a" d="M0 0H60V20H0z"/>
    </defs>
    <g fill="none" fill-rule="evenodd" transform="matrix(-1 0 0 1 58 -1)">
        <mask id="prefix__b" fill="#fff">
            <use xlink:href="#prefix__a"/>
        </mask>
        <circle cx="15" cy="2" r="1" fill="#FFF" mask="url(#prefix__b)"/>
        <circle cx="27" cy="2" r="1" fill="#FFF" mask="url(#prefix__b)"/>
        <circle cx="39" cy="2" r="1" fill="#FFF" mask="url(#prefix__b)"/>
        <circle cx="51" cy="2" r="1" fill="#FFF" mask="url(#prefix__b)"/>
        <circle cx="9" cy="2" r="1" fill="#FFF" mask="url(#prefix__b)"/>
        <circle cx="21" cy="2" r="1" fill="#FFF" mask="url(#prefix__b)"/>
        <circle cx="33" cy="2" r="1" fill="#FFF" mask="url(#prefix__b)"/>
        <circle cx="45" cy="2" r="1" fill="#FFF" mask="url(#prefix__b)"/>
        <circle cx="57" cy="2" r="1" fill="#FFF" mask="url(#prefix__b)"/>
        <circle cx="6" cy="6" r="1" fill="#FFF" mask="url(#prefix__b)"/>
        <circle cx="18" cy="6" r="1" fill="#FFF" mask="url(#prefix__b)"/>
        <circle cx="30" cy="6" r="1" fill="#FFF" mask="url(#prefix__b)"/>
        <circle cx="42" cy="6" r="1" fill="#FFF" mask="url(#prefix__b)"/>
        <circle cx="54" cy="6" r="1" fill="#FFF" mask="url(#prefix__b)"/>
        <circle cx="12" cy="6" r="1" fill="#FFF" mask="url(#prefix__b)"/>
        <circle cx="24" cy="6" r="1" fill="#FFF" mask="url(#prefix__b)"/>
        <circle cx="36" cy="6" r="1" fill="#FFF" mask="url(#prefix__b)"/>
        <circle cx="48" cy="6" r="1" fill="#FFF" mask="url(#prefix__b)"/>
        <circle cx="6" cy="14" r="1" fill="#FFF" mask="url(#prefix__b)"/>
        <circle cx="18" cy="14" r="1" fill="#FFF" mask="url(#prefix__b)"/>
        <circle cx="30" cy="14" r="1" fill="#FFF" mask="url(#prefix__b)"/>
        <circle cx="42" cy="14" r="1" fill="#FFF" mask="url(#prefix__b)"/>
        <circle cx="12" cy="14" r="1" fill="#FFF" mask="url(#prefix__b)"/>
        <circle cx="24" cy="14" r="1" fill="#FFF" mask="url(#prefix__b)"/>
        <circle cx="36" cy="14" r="1" fill="#FFF" mask="url(#prefix__b)"/>
        <circle cx="48" cy="14" r="1" fill="#FFF" mask="url(#prefix__b)"/>
        <circle cx="9" cy="18" r="1" fill="#FFF" mask="url(#prefix__b)"/>
        <circle cx="21" cy="18" r="1" fill="#FFF" mask="url(#prefix__b)"/>
        <circle cx="33" cy="18" r="1" fill="#FFF" mask="url(#prefix__b)"/>
        <circle cx="45" cy="18" r="1" fill="#FFF" mask="url(#prefix__b)"/>
        <circle cx="15" cy="18" r="1" fill="#FFF" mask="url(#prefix__b)"/>
        <circle cx="27" cy="18" r="1" fill="#FFF" mask="url(#prefix__b)"/>
        <circle cx="39" cy="18" r="1" fill="#FFF" mask="url(#prefix__b)"/>
        <circle cx="51" cy="18" r="1" fill="#FFF" mask="url(#prefix__b)"/>
        <circle cx="54" cy="14" r="1" fill="#FFF" mask="url(#prefix__b)"/>
        <circle cx="57" cy="18" r="1" fill="#FFF" mask="url(#prefix__b)"/>
        <circle cx="9" cy="10" r="1" fill="#FFF" mask="url(#prefix__b)"/>
        <circle cx="21" cy="10" r="1" fill="#FFF" mask="url(#prefix__b)"/>
        <circle cx="33" cy="10" r="1" fill="#FFF" mask="url(#prefix__b)"/>
        <circle cx="45" cy="10" r="1" fill="#FFF" mask="url(#prefix__b)"/>
        <circle cx="3" cy="10" r="1" fill="#FFF" mask="url(#prefix__b)"/>
        <circle cx="15" cy="10" r="1" fill="#FFF" mask="url(#prefix__b)"/>
        <circle cx="27" cy="10" r="1" fill="#FFF" mask="url(#prefix__b)"/>
        <circle cx="39" cy="10" r="1" fill="#FFF" mask="url(#prefix__b)"/>
        <circle cx="51" cy="10" r="1" fill="#FFF" mask="url(#prefix__b)"/>
    </g>
</svg>
