<svg xmlns="http://www.w3.org/2000/svg" xmlns:xlink="http://www.w3.org/1999/xlink" width="60" height="20" viewBox="0 0 60 20">
    <defs>
        <path id="prefix__a" d="M0 0H60V20H0z"/>
    </defs>
    <g fill="none" fill-rule="evenodd">
        <mask id="prefix__b" fill="#fff">
            <use xlink:href="#prefix__a"/>
        </mask>
        <path stroke="#231F20" d="M-.095-10.167l.51-.01-.509-.51v.047l-.482.481.472-.008-.801 42.24-.51.009.509.509v-.046l.482-.482-.472.009.801-42.24z" mask="url(#prefix__b)" transform="rotate(25 -.5 10.952)"/>
        <path stroke="#231F20" d="M9.905-10.167l.51-.01-.509-.51v.047l-.482.481.472-.008-.801 42.24-.51.009.509.509v-.046l.482-.482-.472.009.801-42.24z" mask="url(#prefix__b)" transform="rotate(25 9.5 10.952)"/>
        <path stroke="#231F20" d="M19.905-10.167l.51-.01-.509-.51v.047l-.482.481.472-.008-.801 42.24-.51.009.509.509v-.046l.482-.482-.472.009.801-42.24z" mask="url(#prefix__b)" transform="rotate(25 19.5 10.952)"/>
        <path stroke="#231F20" d="M29.905-10.167l.51-.01-.509-.51v.047l-.482.481.472-.008-.801 42.24-.51.009.509.509v-.046l.482-.482-.472.009.801-42.24z" mask="url(#prefix__b)" transform="rotate(25 29.5 10.952)"/>
        <path stroke="#231F20" d="M39.905-10.167l.51-.01-.509-.51v.047l-.482.481.472-.008-.801 42.24-.51.009.509.509v-.046l.482-.482-.472.009.801-42.24z" mask="url(#prefix__b)" transform="rotate(25 39.5 10.952)"/>
        <path stroke="#231F20" d="M4.905-10.167l.51-.01-.509-.51v.047l-.482.481.472-.008-.801 42.24-.51.009.509.509v-.046l.482-.482-.472.009.801-42.24z" mask="url(#prefix__b)" transform="rotate(25 4.5 10.952)"/>
        <path stroke="#231F20" d="M14.905-10.167l.51-.01-.509-.51v.047l-.482.481.472-.008-.801 42.24-.51.009.509.509v-.046l.482-.482-.472.009.801-42.24z" mask="url(#prefix__b)" transform="rotate(25 14.5 10.952)"/>
        <path stroke="#231F20" d="M24.905-10.167l.51-.01-.509-.51v.047l-.482.481.472-.008-.801 42.24-.51.009.509.509v-.046l.482-.482-.472.009.801-42.24z" mask="url(#prefix__b)" transform="rotate(25 24.5 10.952)"/>
        <path stroke="#231F20" d="M34.905-10.167l.51-.01-.509-.51v.047l-.482.481.472-.008-.801 42.24-.51.009.509.509v-.046l.482-.482-.472.009.801-42.24z" mask="url(#prefix__b)" transform="rotate(25 34.5 10.952)"/>
        <path stroke="#231F20" d="M44.905-10.167l.51-.01-.509-.51v.047l-.482.481.472-.008-.801 42.24-.51.009.509.509v-.046l.482-.482-.472.009.801-42.24z" mask="url(#prefix__b)" transform="rotate(25 44.5 10.952)"/>
        <path stroke="#231F20" d="M49.905-10.167l.51-.01-.509-.51v.047l-.482.481.472-.008-.801 42.24-.51.009.509.509v-.046l.482-.482-.472.009.801-42.24z" mask="url(#prefix__b)" transform="rotate(25 49.5 10.952)"/>
        <path stroke="#231F20" d="M59.905-10.167l.51-.01-.509-.51v.047l-.482.481.472-.008-.801 42.24-.51.009.509.509v-.046l.482-.482-.472.009.801-42.24z" mask="url(#prefix__b)" transform="rotate(25 59.5 10.952)"/>
        <path stroke="#231F20" d="M54.905-10.167l.51-.01-.509-.51v.047l-.482.481.472-.008-.801 42.24-.51.009.509.509v-.046l.482-.482-.472.009.801-42.24z" mask="url(#prefix__b)" transform="rotate(25 54.5 10.952)"/>
        <path stroke="#231F20" d="M69.905-10.167l.51-.01-.509-.51v.047l-.482.481.472-.008-.801 42.24-.51.009.509.509v-.046l.482-.482-.472.009.801-42.24z" mask="url(#prefix__b)" transform="rotate(25 69.5 10.952)"/>
    </g>
</svg>
