<svg xmlns="http://www.w3.org/2000/svg" xmlns:xlink="http://www.w3.org/1999/xlink" width="60" height="20" viewBox="0 0 60 20">
    <defs>
        <path id="prefix__a" d="M0 0H60V20H0z"/>
    </defs>
    <g fill="none" fill-rule="evenodd" transform="matrix(-1 0 0 1 60 0)">
        <mask id="prefix__b" fill="#fff">
            <use xlink:href="#prefix__a"/>
        </mask>
        <path stroke="#231F20" d="M60 2H0M60 6H0M60 10H0M60 14H0M60 18H0" mask="url(#prefix__b)"/>
        <path stroke="#231F20" d="M67 9.5H37" mask="url(#prefix__b)" transform="rotate(-90 52 9.5)"/>
        <path stroke="#231F20" d="M71 9.5H41" mask="url(#prefix__b)" transform="rotate(-90 56 9.5)"/>
        <path stroke="#231F20" d="M63 9.5H33" mask="url(#prefix__b)" transform="rotate(-90 48 9.5)"/>
        <path stroke="#231F20" d="M59 9.5H29" mask="url(#prefix__b)" transform="rotate(-90 44 9.5)"/>
        <path stroke="#231F20" d="M47 9.5H17" mask="url(#prefix__b)" transform="rotate(-90 32 9.5)"/>
        <path stroke="#231F20" d="M43 9.5H13" mask="url(#prefix__b)" transform="rotate(-90 28 9.5)"/>
        <path stroke="#231F20" d="M51 9.5H21" mask="url(#prefix__b)" transform="rotate(-90 36 9.5)"/>
        <path stroke="#231F20" d="M55 9.5H25" mask="url(#prefix__b)" transform="rotate(-90 40 9.5)"/>
        <path stroke="#231F20" d="M35 9.5H5" mask="url(#prefix__b)" transform="rotate(-90 20 9.5)"/>
        <path stroke="#231F20" d="M39 9.5H9" mask="url(#prefix__b)" transform="rotate(-90 24 9.5)"/>
        <path stroke="#231F20" d="M31 9.5H1" mask="url(#prefix__b)" transform="rotate(-90 16 9.5)"/>
        <path stroke="#231F20" d="M27 9.5H-3" mask="url(#prefix__b)" transform="rotate(-90 12 9.5)"/>
        <path stroke="#231F20" d="M19 9.5h-30" mask="url(#prefix__b)" transform="rotate(-90 4 9.5)"/>
        <path stroke="#231F20" d="M23 9.5H-7" mask="url(#prefix__b)" transform="rotate(-90 8 9.5)"/>
    </g>
</svg>
