<?xml version="1.0" encoding="UTF-8" standalone="no"?>
<!DOCTYPE svg PUBLIC "-//W3C//DTD SVG 1.1//EN" "http://www.w3.org/Graphics/SVG/1.1/DTD/svg11.dtd">
<svg width="60" height="20" viewBox="0 0 60 20" version="1.1" xmlns="http://www.w3.org/2000/svg" xmlns:xlink="http://www.w3.org/1999/xlink" xml:space="preserve" xmlns:serif="http://www.serif.com/" style="fill-rule:evenodd;clip-rule:evenodd;stroke-miterlimit:10;">
    <rect id="Artboard1" x="0" y="0" width="57" height="20" style="fill:none;"/>
    <clipPath id="_clip1">
        <rect id="Artboard11" serif:id="Artboard1" x="0" y="0" width="57" height="20"/>
    </clipPath>
    <g clip-path="url(#_clip1)">
        <g>
            <clipPath id="_clip2">
                <rect x="0" y="0" width="60" height="20" clip-rule="nonzero"/>
            </clipPath>
            <g clip-path="url(#_clip2)">
                <g>
                    <g transform="matrix(0.913927,0.405878,-0.405878,0.913927,23.4506,-29.1828)">
                        <clipPath id="_clip3">
                            <path d="M1.218,0.02L2.21,0.02L0.594,43.238L-0.398,43.238L1.218,0.02Z"/>
                        </clipPath>
                        <g clip-path="url(#_clip3)">
                            <path d="M1.218,0.02L2.21,0.02L0.594,43.238L-0.398,43.238L1.218,0.02Z" style="fill:none;fill-rule:nonzero;stroke:rgb(35,31,32);stroke-width:2px;"/>
                        </g>
                    </g>
                    <g transform="matrix(0.913927,0.405878,-0.405878,0.913927,33.4506,-29.1828)">
                        <clipPath id="_clip4">
                            <path d="M1.218,0.02L2.21,0.02L0.594,43.238L-0.398,43.238L1.218,0.02Z"/>
                        </clipPath>
                        <g clip-path="url(#_clip4)">
                            <path d="M1.218,0.02L2.21,0.02L0.594,43.238L-0.398,43.238L1.218,0.02Z" style="fill:none;fill-rule:nonzero;stroke:rgb(35,31,32);stroke-width:2px;"/>
                        </g>
                    </g>
                    <g transform="matrix(0.913927,0.405878,-0.405878,0.913927,43.4506,-29.1828)">
                        <clipPath id="_clip5">
                            <path d="M1.218,0.02L2.21,0.02L0.594,43.238L-0.398,43.238L1.218,0.02Z"/>
                        </clipPath>
                        <g clip-path="url(#_clip5)">
                            <path d="M1.218,0.02L2.21,0.02L0.594,43.238L-0.398,43.238L1.218,0.02Z" style="fill:none;fill-rule:nonzero;stroke:rgb(35,31,32);stroke-width:2px;"/>
                        </g>
                    </g>
                    <g transform="matrix(0.913927,0.405878,-0.405878,0.913927,53.4506,-29.1828)">
                        <clipPath id="_clip6">
                            <path d="M1.218,0.02L2.21,0.02L0.594,43.238L-0.398,43.238L1.218,0.02Z"/>
                        </clipPath>
                        <g clip-path="url(#_clip6)">
                            <path d="M1.218,0.02L2.21,0.02L0.594,43.238L-0.398,43.238L1.218,0.02Z" style="fill:none;fill-rule:nonzero;stroke:rgb(35,31,32);stroke-width:2px;"/>
                        </g>
                    </g>
                    <g transform="matrix(0.913927,0.405878,-0.405878,0.913927,18.4506,-29.1828)">
                        <clipPath id="_clip7">
                            <path d="M1.218,0.02L2.21,0.02L0.594,43.238L-0.398,43.238L1.218,0.02Z"/>
                        </clipPath>
                        <g clip-path="url(#_clip7)">
                            <path d="M1.218,0.02L2.21,0.02L0.594,43.238L-0.398,43.238L1.218,0.02Z" style="fill:none;fill-rule:nonzero;stroke:rgb(35,31,32);stroke-width:2px;"/>
                        </g>
                    </g>
                    <g transform="matrix(0.913927,0.405878,-0.405878,0.913927,28.4506,-29.1828)">
                        <clipPath id="_clip8">
                            <path d="M1.218,0.02L2.21,0.02L0.594,43.238L-0.398,43.238L1.218,0.02Z"/>
                        </clipPath>
                        <g clip-path="url(#_clip8)">
                            <path d="M1.218,0.02L2.21,0.02L0.594,43.238L-0.398,43.238L1.218,0.02Z" style="fill:none;fill-rule:nonzero;stroke:rgb(35,31,32);stroke-width:2px;"/>
                        </g>
                    </g>
                    <g transform="matrix(0.913927,0.405878,-0.405878,0.913927,38.4506,-29.1828)">
                        <clipPath id="_clip9">
                            <path d="M1.218,0.02L2.21,0.02L0.594,43.238L-0.398,43.238L1.218,0.02Z"/>
                        </clipPath>
                        <g clip-path="url(#_clip9)">
                            <path d="M1.218,0.02L2.21,0.02L0.594,43.238L-0.398,43.238L1.218,0.02Z" style="fill:none;fill-rule:nonzero;stroke:rgb(35,31,32);stroke-width:2px;"/>
                        </g>
                    </g>
                    <g transform="matrix(0.913927,0.405878,-0.405878,0.913927,48.4506,-29.1828)">
                        <clipPath id="_clip10">
                            <path d="M1.218,0.02L2.21,0.02L0.594,43.238L-0.398,43.238L1.218,0.02Z"/>
                        </clipPath>
                        <g clip-path="url(#_clip10)">
                            <path d="M1.218,0.02L2.21,0.02L0.594,43.238L-0.398,43.238L1.218,0.02Z" style="fill:none;fill-rule:nonzero;stroke:rgb(35,31,32);stroke-width:2px;"/>
                        </g>
                    </g>
                    <g transform="matrix(0.913927,0.405878,-0.405878,0.913927,58.4506,-29.1828)">
                        <clipPath id="_clip11">
                            <path d="M1.218,0.02L2.21,0.02L0.594,43.238L-0.398,43.238L1.218,0.02Z"/>
                        </clipPath>
                        <g clip-path="url(#_clip11)">
                            <path d="M1.218,0.02L2.21,0.02L0.594,43.238L-0.398,43.238L1.218,0.02Z" style="fill:none;fill-rule:nonzero;stroke:rgb(35,31,32);stroke-width:2px;"/>
                        </g>
                    </g>
                    <g transform="matrix(0.913927,0.405878,-0.405878,0.913927,63.4506,-29.1828)">
                        <clipPath id="_clip12">
                            <path d="M1.218,0.02L2.21,0.02L0.594,43.238L-0.398,43.238L1.218,0.02Z"/>
                        </clipPath>
                        <g clip-path="url(#_clip12)">
                            <path d="M1.218,0.02L2.21,0.02L0.594,43.238L-0.398,43.238L1.218,0.02Z" style="fill:none;fill-rule:nonzero;stroke:rgb(35,31,32);stroke-width:2px;"/>
                        </g>
                    </g>
                    <g transform="matrix(0.913927,0.405878,-0.405878,0.913927,68.4506,-29.1828)">
                        <clipPath id="_clip13">
                            <path d="M1.218,0.02L2.21,0.02L0.594,43.238L-0.398,43.238L1.218,0.02Z"/>
                        </clipPath>
                        <g clip-path="url(#_clip13)">
                            <path d="M1.218,0.02L2.21,0.02L0.594,43.238L-0.398,43.238L1.218,0.02Z" style="fill:none;fill-rule:nonzero;stroke:rgb(35,31,32);stroke-width:2px;"/>
                        </g>
                    </g>
                    <g transform="matrix(0.913927,-0.405878,-0.405878,-0.913927,23.4506,49.0875)">
                        <clipPath id="_clip14">
                            <path d="M1.218,0.02L2.21,0.02L0.594,43.238L-0.398,43.238L1.218,0.02Z"/>
                        </clipPath>
                        <g clip-path="url(#_clip14)">
                            <path d="M1.218,0.02L2.21,0.02L0.594,43.238L-0.398,43.238L1.218,0.02Z" style="fill:none;fill-rule:nonzero;stroke:rgb(35,31,32);stroke-width:2px;"/>
                        </g>
                    </g>
                    <g transform="matrix(0.913927,-0.405878,-0.405878,-0.913927,33.4506,49.0875)">
                        <clipPath id="_clip15">
                            <path d="M1.218,0.02L2.21,0.02L0.594,43.238L-0.398,43.238L1.218,0.02Z"/>
                        </clipPath>
                        <g clip-path="url(#_clip15)">
                            <path d="M1.218,0.02L2.21,0.02L0.594,43.238L-0.398,43.238L1.218,0.02Z" style="fill:none;fill-rule:nonzero;stroke:rgb(35,31,32);stroke-width:2px;"/>
                        </g>
                    </g>
                    <g transform="matrix(0.913927,-0.405878,-0.405878,-0.913927,43.4506,49.0875)">
                        <clipPath id="_clip16">
                            <path d="M1.218,0.02L2.21,0.02L0.594,43.238L-0.398,43.238L1.218,0.02Z"/>
                        </clipPath>
                        <g clip-path="url(#_clip16)">
                            <path d="M1.218,0.02L2.21,0.02L0.594,43.238L-0.398,43.238L1.218,0.02Z" style="fill:none;fill-rule:nonzero;stroke:rgb(35,31,32);stroke-width:2px;"/>
                        </g>
                    </g>
                    <g transform="matrix(0.913927,-0.405878,-0.405878,-0.913927,53.4506,49.0875)">
                        <clipPath id="_clip17">
                            <path d="M1.218,0.02L2.21,0.02L0.594,43.238L-0.398,43.238L1.218,0.02Z"/>
                        </clipPath>
                        <g clip-path="url(#_clip17)">
                            <path d="M1.218,0.02L2.21,0.02L0.594,43.238L-0.398,43.238L1.218,0.02Z" style="fill:none;fill-rule:nonzero;stroke:rgb(35,31,32);stroke-width:2px;"/>
                        </g>
                    </g>
                    <g transform="matrix(0.913927,-0.405878,-0.405878,-0.913927,18.4506,49.0875)">
                        <clipPath id="_clip18">
                            <path d="M1.218,0.02L2.21,0.02L0.594,43.238L-0.398,43.238L1.218,0.02Z"/>
                        </clipPath>
                        <g clip-path="url(#_clip18)">
                            <path d="M1.218,0.02L2.21,0.02L0.594,43.238L-0.398,43.238L1.218,0.02Z" style="fill:none;fill-rule:nonzero;stroke:rgb(35,31,32);stroke-width:2px;"/>
                        </g>
                    </g>
                    <g transform="matrix(0.913927,-0.405878,-0.405878,-0.913927,28.4506,49.0875)">
                        <clipPath id="_clip19">
                            <path d="M1.218,0.02L2.21,0.02L0.594,43.238L-0.398,43.238L1.218,0.02Z"/>
                        </clipPath>
                        <g clip-path="url(#_clip19)">
                            <path d="M1.218,0.02L2.21,0.02L0.594,43.238L-0.398,43.238L1.218,0.02Z" style="fill:none;fill-rule:nonzero;stroke:rgb(35,31,32);stroke-width:2px;"/>
                        </g>
                    </g>
                    <g transform="matrix(0.913927,-0.405878,-0.405878,-0.913927,38.4506,49.0875)">
                        <clipPath id="_clip20">
                            <path d="M1.218,0.02L2.21,0.02L0.594,43.238L-0.398,43.238L1.218,0.02Z"/>
                        </clipPath>
                        <g clip-path="url(#_clip20)">
                            <path d="M1.218,0.02L2.21,0.02L0.594,43.238L-0.398,43.238L1.218,0.02Z" style="fill:none;fill-rule:nonzero;stroke:rgb(35,31,32);stroke-width:2px;"/>
                        </g>
                    </g>
                    <g transform="matrix(0.913927,-0.405878,-0.405878,-0.913927,48.4506,49.0875)">
                        <clipPath id="_clip21">
                            <path d="M1.218,0.02L2.21,0.02L0.594,43.238L-0.398,43.238L1.218,0.02Z"/>
                        </clipPath>
                        <g clip-path="url(#_clip21)">
                            <path d="M1.218,0.02L2.21,0.02L0.594,43.238L-0.398,43.238L1.218,0.02Z" style="fill:none;fill-rule:nonzero;stroke:rgb(35,31,32);stroke-width:2px;"/>
                        </g>
                    </g>
                    <g transform="matrix(0.913927,-0.405878,-0.405878,-0.913927,58.4506,49.0875)">
                        <clipPath id="_clip22">
                            <path d="M1.218,0.02L2.21,0.02L0.594,43.238L-0.398,43.238L1.218,0.02Z"/>
                        </clipPath>
                        <g clip-path="url(#_clip22)">
                            <path d="M1.218,0.02L2.21,0.02L0.594,43.238L-0.398,43.238L1.218,0.02Z" style="fill:none;fill-rule:nonzero;stroke:rgb(35,31,32);stroke-width:2px;"/>
                        </g>
                    </g>
                    <g transform="matrix(0.913927,-0.405878,-0.405878,-0.913927,63.4506,49.0875)">
                        <clipPath id="_clip23">
                            <path d="M1.218,0.02L2.21,0.02L0.594,43.238L-0.398,43.238L1.218,0.02Z"/>
                        </clipPath>
                        <g clip-path="url(#_clip23)">
                            <path d="M1.218,0.02L2.21,0.02L0.594,43.238L-0.398,43.238L1.218,0.02Z" style="fill:none;fill-rule:nonzero;stroke:rgb(35,31,32);stroke-width:2px;"/>
                        </g>
                    </g>
                    <g transform="matrix(0.913927,-0.405878,-0.405878,-0.913927,68.4506,49.0875)">
                        <clipPath id="_clip24">
                            <path d="M1.218,0.02L2.21,0.02L0.594,43.238L-0.398,43.238L1.218,0.02Z"/>
                        </clipPath>
                        <g clip-path="url(#_clip24)">
                            <path d="M1.218,0.02L2.21,0.02L0.594,43.238L-0.398,43.238L1.218,0.02Z" style="fill:none;fill-rule:nonzero;stroke:rgb(35,31,32);stroke-width:2px;"/>
                        </g>
                    </g>
                </g>
            </g>
        </g>
    </g>
</svg>
