<svg xmlns="http://www.w3.org/2000/svg" xmlns:xlink="http://www.w3.org/1999/xlink" width="19" height="19" viewBox="0 0 19 19">
    <defs>
        <path id="prefix__a" d="M0.004 0.029L29.733 0.029 29.733 29.758 0.004 29.758z"/>
    </defs>
    <g fill="none" fill-rule="evenodd" transform="translate(-6 -6)">
        <path fill="#111" d="M22.27 6.194H8.698c-1.382 0-2.503 1.12-2.503 2.503v13.574c0 1.383 1.12 2.503 2.503 2.503h6.695l.01-6.64h-1.724c-.224 0-.406-.18-.407-.405l-.008-2.14c-.001-.225.181-.409.407-.409h1.722v-2.068c0-2.4 1.465-3.707 3.606-3.707h1.757c.225 0 .407.183.407.408v1.804c0 .225-.182.407-.407.407h-1.078c-1.164 0-1.39.554-1.39 1.366v1.79h2.559c.244 0 .433.213.404.455l-.254 2.14c-.024.206-.198.36-.404.36H18.3l-.012 6.64h3.984c1.382 0 2.503-1.121 2.503-2.504V8.697c0-1.382-1.12-2.503-2.503-2.503z"/>
    </g>
</svg>
