<svg xmlns="http://www.w3.org/2000/svg" xmlns:xlink="http://www.w3.org/1999/xlink" width="18" height="18" viewBox="0 0 18 18">
    <defs>
        <path id="prefix__a" d="M0.004 0.029L29.898 0.029 29.898 29.927 0.004 29.927z"/>
    </defs>
    <g fill="none" fill-rule="evenodd" transform="translate(-6 -6)">
        <path fill="#111" d="M18.407 6.421c2.812 0 5.099 2.287 5.099 5.099v6.916c0 2.812-2.288 5.099-5.098 5.099H11.49c-2.81 0-5.098-2.287-5.098-5.099V11.52c0-2.812 2.287-5.099 5.098-5.099h6.917zm-3.458 4.13c-2.44 0-4.426 1.986-4.426 4.427 0 2.44 1.985 4.426 4.426 4.426 2.44 0 4.426-1.985 4.426-4.426 0-2.44-1.986-4.426-4.426-4.426zm0 7.132c-1.494 0-2.705-1.211-2.705-2.705s1.211-2.705 2.705-2.705c1.493 0 2.704 1.211 2.704 2.705s-1.21 2.705-2.704 2.705zm5.495-7.098c0-.585-.475-1.06-1.06-1.06-.586 0-1.061.475-1.061 1.06 0 .586.475 1.06 1.06 1.06.586 0 1.06-.474 1.06-1.06z"/>
    </g>
</svg>
