<svg fill="#000000" xmlns="http://www.w3.org/2000/svg" viewBox="0 0 16 16" width="16px" height="16px">
	<g fill="none" fill-rule="evenodd" stroke="#2D2D2D" stroke-linecap="round" stroke-linejoin="round" transform="translate(0 1)">
		<path d="M 12 1 C 10.894531 1 10 1.894531 10 3 C 10 4.105469 10.894531 5 12 5 C 13.105469 5 14 4.105469 14 3 C 14 1.894531 13.105469 1 12 1 Z M 3.5 2 C 2.671875 2 2 2.671875 2 3.5 C 2 4.328125 2.671875 5 3.5 5 C 4.328125 5 5 4.328125 5 3.5 C 5 2.671875 4.328125 2 3.5 2 Z M 7.5 2 C 6.671875 2 6 2.671875 6 3.5 C 6 4.328125 6.671875 5 7.5 5 C 8.328125 5 9 4.328125 9 3.5 C 9 2.671875 8.328125 2 7.5 2 Z M 3.5 6 C 0.976563 6.007813 1 8.496094 1 8.496094 L 1 11 L 5.027344 11 L 5.027344 12 L 9.027344 12 L 9.027344 13 L 15 13 L 15 9.5 C 15 9.5 15 5.996094 12.015625 6.007813 C 10.742188 6.007813 10.03125 6.632813 9.613281 7.351563 C 9.285156 6.652344 8.675781 5.996094 7.515625 6 C 6.511719 6.003906 5.921875 6.484375 5.566406 7.0625 C 5.226563 6.503906 4.625 5.996094 3.5 6 Z"/>
	</g>
</svg>