<svg xmlns="http://www.w3.org/2000/svg" xmlns:xlink="http://www.w3.org/1999/xlink" width="32" height="32" viewBox="0 0 32 32">
    <defs>
        <path id="prefix__a" d="M0 0H32V32H0z"/>
    </defs>
    <g fill="none" fill-rule="evenodd">
        <mask id="prefix__b" fill="#fff">
            <use xlink:href="#prefix__a"/>
        </mask>
        <path fill="#231F20" d="M16 19.927l-3.783 2.048c-.243.131-.547.04-.678-.202-.054-.1-.073-.216-.052-.329l.779-4.23-3.117-2.966c-.2-.19-.208-.507-.018-.707.079-.082.183-.136.296-.15l4.265-.568 1.857-3.88c.12-.25.418-.355.667-.236.103.05.186.133.235.236l1.857 3.88 4.265.567c.273.037.466.288.43.562-.016.113-.069.217-.152.296l-3.117 2.965.78 4.231c.05.272-.13.533-.402.583-.112.02-.228.002-.329-.052L16 19.927z" mask="url(#prefix__b)"/>
    </g>
</svg>
