<svg xmlns="http://www.w3.org/2000/svg" width="16" height="14" viewBox="0 0 16 14">
    <g fill="none" fill-rule="evenodd" stroke="#2D2D2D" stroke-linecap="square">
        <path d="M12 13.5h3.5v-2.323a1 1 0 0 0-.629-.928l-2.846-1.14a.5.5 0 0 1-.31-.402l-.117-.936A2.75 2.75 0 0 0 13.25 5.25V2.931a1.5 1.5 0 0 0-1.5-1.5l-.388-.777a.29.29 0 0 0-.347-.139l-1.851.661a1.9 1.9 0 0 0-.56.324M9.871 10.748L7.025 9.61a.5.5 0 0 1-.31-.403l-.116-.923c.866.263 1.792.25 2.651-.034a6.836 6.836 0 0 1-1-3.5V4.5a2.75 2.75 0 0 0-5.5 0v.25a6.836 6.836 0 0 1-1 3.5c.86.285 1.786.297 2.652.034l-.115.923a.5.5 0 0 1-.31.402l-2.849 1.14a1 1 0 0 0-.628.928V13.5h10v-1.823a1 1 0 0 0-.629-.929z"/>
    </g>
</svg>
