<svg xmlns="http://www.w3.org/2000/svg" xmlns:xlink="http://www.w3.org/1999/xlink" width="19" height="17" viewBox="0 0 19 17">
    <defs>
        <path id="prefix__a" d="M0.004 0.029L29.971 0.029 29.971 29.927 0.004 29.927z"/>
    </defs>
    <g fill="none" fill-rule="evenodd" transform="translate(-6 -7)">
        <path fill="#111" d="M24.702 9.675c-.417.185-.85.33-1.293.436.489-.465.857-1.046 1.064-1.694.06-.186-.142-.346-.31-.247-.616.366-1.282.641-1.976.817-.04.01-.081.015-.123.015-.127 0-.25-.047-.346-.132-.739-.65-1.689-1.01-2.675-1.01-.427 0-.857.067-1.28.199-1.311.406-2.322 1.487-2.64 2.821-.12.5-.151 1.001-.096 1.488.006.057-.02.096-.036.114-.029.032-.07.05-.112.05h-.014c-2.87-.267-5.457-1.65-7.285-3.892-.093-.115-.272-.101-.347.026-.358.615-.547 1.318-.547 2.033 0 1.095.44 2.129 1.205 2.881-.322-.076-.633-.196-.922-.357-.14-.077-.312.023-.314.183-.02 1.628.933 3.076 2.361 3.729H8.93c-.227 0-.456-.021-.681-.064-.158-.03-.29.119-.242.272.464 1.447 1.71 2.513 3.2 2.755-1.236.83-2.678 1.269-4.177 1.269h-.467c-.145 0-.267.094-.303.233-.036.137.03.282.153.354 1.69.983 3.618 1.503 5.575 1.503 1.714 0 3.317-.34 4.764-1.01 1.328-.615 2.5-1.494 3.486-2.613.919-1.042 1.637-2.244 2.135-3.575.474-1.267.725-2.62.725-3.912v-.062c0-.207.094-.402.258-.535.62-.505 1.162-1.098 1.607-1.765.118-.175-.067-.396-.261-.31z"/>
    </g>
</svg>
