<svg xmlns="http://www.w3.org/2000/svg" xmlns:xlink="http://www.w3.org/1999/xlink" width="18" height="14" viewBox="0 0 18 14">
    <defs>
        <path id="prefix__a" d="M0.004 0.029L29.898 0.029 29.898 29.927 0.004 29.927z"/>
    </defs>
    <g fill="none" fill-rule="evenodd" transform="translate(-6 -8)">
        <path fill="#111" d="M19.95 8.925H9.948c-1.963 0-3.554 1.59-3.554 3.553v5c0 1.963 1.591 3.554 3.554 3.554H19.95c1.963 0 3.554-1.591 3.554-3.554v-5c0-1.962-1.591-3.553-3.554-3.553zm-2.403 6.296l-4.678 2.232c-.125.06-.27-.032-.27-.17v-4.602c0-.14.149-.23.273-.167l4.679 2.37c.14.07.137.27-.004.337z"/>
    </g>
</svg>
